<svg width="20" height="20" viewBox="0 0 20 20" fill="none" xmlns="http://www.w3.org/2000/svg">
<path d="M19.8821 8.45893L19.7793 8.0308H10.294V11.9692H15.9613C15.3729 14.7103 12.6425 16.1531 10.4123 16.1531C8.78953 16.1531 7.07895 15.4835 5.94676 14.4071C5.34941 13.8302 4.87393 13.1433 4.54753 12.3859C4.22113 11.6284 4.05022 10.8152 4.0446 9.99286C4.0446 8.33393 4.80455 6.67455 5.91035 5.58304C7.01615 4.49152 8.68623 3.8808 10.3468 3.8808C12.2485 3.8808 13.6114 4.87143 14.121 5.32321L16.9738 2.53929C16.137 1.81786 13.838 0 10.2548 0C7.49033 0 4.83959 1.03884 2.90193 2.93348C0.989761 4.79911 0 7.49687 0 10C0 12.5031 0.936519 15.0661 2.78953 16.9464C4.76951 18.9518 7.57361 20 10.461 20C13.0881 20 15.5782 18.9902 17.3529 17.158C19.0976 15.3545 20 12.8589 20 10.2429C20 9.14152 19.8871 8.4875 19.8821 8.45893Z" fill="#F5F4F4"/>
</svg>
