<svg width="18" height="22" viewBox="0 0 18 22" fill="none" xmlns="http://www.w3.org/2000/svg">
<path d="M13.3692 5.14932C11.4788 5.14932 10.6799 6.09407 9.36333 6.09407C8.01352 6.09407 6.98392 5.1562 5.34577 5.1562C3.7423 5.1562 2.03241 6.18147 0.946555 7.92806C-0.578142 10.3911 -0.319337 15.0298 2.15009 18.9816C3.0334 20.3963 4.21303 21.9828 5.76023 22H5.78836C7.13302 22 7.53248 21.0778 9.38302 21.067H9.41115C11.234 21.067 11.5997 21.9946 12.9388 21.9946H12.9669C14.5141 21.9774 15.757 20.2195 16.6403 18.8103C17.2761 17.7968 17.5124 17.2881 18 16.1415C14.4278 14.7215 13.854 9.41785 17.3867 7.38449C16.3084 5.97033 14.7931 5.15129 13.3645 5.15129L13.3692 5.14932Z" fill="#F5F4F4"/>
<path d="M12.9546 0C11.8289 0.0800706 10.5156 0.830671 9.74639 1.81068C9.04846 2.69882 8.47435 4.0163 8.69949 5.29399H8.78955C9.98841 5.29399 11.2154 4.53799 11.9321 3.56928C12.6225 2.64724 13.146 1.34057 12.9546 0Z" fill="#F5F4F4"/>
</svg>
